<svg xmlns="http://www.w3.org/2000/svg" xmlns:xlink="http://www.w3.org/1999/xlink" width="500" zoomAndPan="magnify" viewBox="0 0 375 374.999991" height="500" preserveAspectRatio="xMidYMid meet" version="1.0"><defs><clipPath id="cfcccd1949"><path d="M 0 276 L 375 276 L 375 318.855469 L 0 318.855469 Z M 0 276 " clip-rule="nonzero"/></clipPath></defs><path fill="#ffffff" d="M 21.242188 99.253906 L 353.726562 99.253906 C 365.476562 99.253906 375 89.71875 375 77.949219 C 375 66.179688 365.476562 56.644531 353.726562 56.644531 L 21.242188 56.644531 C 9.523438 56.644531 0 66.179688 0 77.949219 C 0 89.71875 9.523438 99.253906 21.242188 99.253906 " fill-opacity="1" fill-rule="nonzero"/><path fill="#ffffff" d="M 353.726562 167.496094 L 21.242188 167.496094 C 9.523438 167.496094 0 177.03125 0 188.800781 C 0 200.570312 9.523438 210.105469 21.242188 210.105469 L 353.726562 210.105469 C 365.476562 210.105469 375 200.570312 375 188.800781 C 375 177.03125 365.476562 167.496094 353.726562 167.496094 " fill-opacity="1" fill-rule="nonzero"/><g clip-path="url(#cfcccd1949)"><path fill="#ffffff" d="M 353.726562 276.28125 L 21.242188 276.28125 C 9.523438 276.28125 0 285.816406 0 297.585938 C 0 309.320312 9.523438 318.855469 21.242188 318.855469 L 353.726562 318.855469 C 365.476562 318.855469 375 309.320312 375 297.585938 C 375 285.816406 365.476562 276.28125 353.726562 276.28125 " fill-opacity="1" fill-rule="nonzero"/></g></svg>